<?xml version="1.0" encoding="UTF-8"?>
<svg xmlns="http://www.w3.org/2000/svg" width="1680" height="620" viewBox="0 0 1680 620">
  <defs>
    <filter id="shadow" x="-20%" y="-20%" width="140%" height="140%">
      <feDropShadow dx="1" dy="1" stdDeviation="1.5" flood-opacity="0.25"/>
    </filter>
    <marker id="arrowhead" markerWidth="8" markerHeight="8" refX="7" refY="4" orient="auto">
      <polygon points="0 0, 8 4, 0 8" fill="black"/>
    </marker>
  </defs>
  <rect width="100%" height="100%" fill="#f0f0f0"/>
  <line x1="0" y1="0" x2="0" y2="620" stroke="#e8e8e8" stroke-width="0.5"/><line x1="20" y1="0" x2="20" y2="620" stroke="#e8e8e8" stroke-width="0.5"/><line x1="40" y1="0" x2="40" y2="620" stroke="#e8e8e8" stroke-width="0.5"/><line x1="60" y1="0" x2="60" y2="620" stroke="#e8e8e8" stroke-width="0.5"/><line x1="80" y1="0" x2="80" y2="620" stroke="#e8e8e8" stroke-width="0.5"/><line x1="100" y1="0" x2="100" y2="620" stroke="#e8e8e8" stroke-width="0.5"/><line x1="120" y1="0" x2="120" y2="620" stroke="#e8e8e8" stroke-width="0.5"/><line x1="140" y1="0" x2="140" y2="620" stroke="#e8e8e8" stroke-width="0.5"/><line x1="160" y1="0" x2="160" y2="620" stroke="#e8e8e8" stroke-width="0.5"/><line x1="180" y1="0" x2="180" y2="620" stroke="#e8e8e8" stroke-width="0.5"/><line x1="200" y1="0" x2="200" y2="620" stroke="#e8e8e8" stroke-width="0.5"/><line x1="220" y1="0" x2="220" y2="620" stroke="#e8e8e8" stroke-width="0.5"/><line x1="240" y1="0" x2="240" y2="620" stroke="#e8e8e8" stroke-width="0.5"/><line x1="260" y1="0" x2="260" y2="620" stroke="#e8e8e8" stroke-width="0.5"/><line x1="280" y1="0" x2="280" y2="620" stroke="#e8e8e8" stroke-width="0.5"/><line x1="300" y1="0" x2="300" y2="620" stroke="#e8e8e8" stroke-width="0.5"/><line x1="320" y1="0" x2="320" y2="620" stroke="#e8e8e8" stroke-width="0.5"/><line x1="340" y1="0" x2="340" y2="620" stroke="#e8e8e8" stroke-width="0.5"/><line x1="360" y1="0" x2="360" y2="620" stroke="#e8e8e8" stroke-width="0.5"/><line x1="380" y1="0" x2="380" y2="620" stroke="#e8e8e8" stroke-width="0.5"/><line x1="400" y1="0" x2="400" y2="620" stroke="#e8e8e8" stroke-width="0.5"/><line x1="420" y1="0" x2="420" y2="620" stroke="#e8e8e8" stroke-width="0.5"/><line x1="440" y1="0" x2="440" y2="620" stroke="#e8e8e8" stroke-width="0.5"/><line x1="460" y1="0" x2="460" y2="620" stroke="#e8e8e8" stroke-width="0.5"/><line x1="480" y1="0" x2="480" y2="620" stroke="#e8e8e8" stroke-width="0.5"/><line x1="500" y1="0" x2="500" y2="620" stroke="#e8e8e8" stroke-width="0.5"/><line x1="520" y1="0" x2="520" y2="620" stroke="#e8e8e8" stroke-width="0.5"/><line x1="540" y1="0" x2="540" y2="620" stroke="#e8e8e8" stroke-width="0.5"/><line x1="560" y1="0" x2="560" y2="620" stroke="#e8e8e8" stroke-width="0.5"/><line x1="580" y1="0" x2="580" y2="620" stroke="#e8e8e8" stroke-width="0.5"/><line x1="600" y1="0" x2="600" y2="620" stroke="#e8e8e8" stroke-width="0.5"/><line x1="620" y1="0" x2="620" y2="620" stroke="#e8e8e8" stroke-width="0.5"/><line x1="640" y1="0" x2="640" y2="620" stroke="#e8e8e8" stroke-width="0.5"/><line x1="660" y1="0" x2="660" y2="620" stroke="#e8e8e8" stroke-width="0.5"/><line x1="680" y1="0" x2="680" y2="620" stroke="#e8e8e8" stroke-width="0.5"/><line x1="700" y1="0" x2="700" y2="620" stroke="#e8e8e8" stroke-width="0.5"/><line x1="720" y1="0" x2="720" y2="620" stroke="#e8e8e8" stroke-width="0.5"/><line x1="740" y1="0" x2="740" y2="620" stroke="#e8e8e8" stroke-width="0.5"/><line x1="760" y1="0" x2="760" y2="620" stroke="#e8e8e8" stroke-width="0.5"/><line x1="780" y1="0" x2="780" y2="620" stroke="#e8e8e8" stroke-width="0.5"/><line x1="800" y1="0" x2="800" y2="620" stroke="#e8e8e8" stroke-width="0.5"/><line x1="820" y1="0" x2="820" y2="620" stroke="#e8e8e8" stroke-width="0.5"/><line x1="840" y1="0" x2="840" y2="620" stroke="#e8e8e8" stroke-width="0.5"/><line x1="860" y1="0" x2="860" y2="620" stroke="#e8e8e8" stroke-width="0.5"/><line x1="880" y1="0" x2="880" y2="620" stroke="#e8e8e8" stroke-width="0.5"/><line x1="900" y1="0" x2="900" y2="620" stroke="#e8e8e8" stroke-width="0.5"/><line x1="920" y1="0" x2="920" y2="620" stroke="#e8e8e8" stroke-width="0.5"/><line x1="940" y1="0" x2="940" y2="620" stroke="#e8e8e8" stroke-width="0.5"/><line x1="960" y1="0" x2="960" y2="620" stroke="#e8e8e8" stroke-width="0.5"/><line x1="980" y1="0" x2="980" y2="620" stroke="#e8e8e8" stroke-width="0.5"/><line x1="1000" y1="0" x2="1000" y2="620" stroke="#e8e8e8" stroke-width="0.5"/><line x1="1020" y1="0" x2="1020" y2="620" stroke="#e8e8e8" stroke-width="0.5"/><line x1="1040" y1="0" x2="1040" y2="620" stroke="#e8e8e8" stroke-width="0.5"/><line x1="1060" y1="0" x2="1060" y2="620" stroke="#e8e8e8" stroke-width="0.5"/><line x1="1080" y1="0" x2="1080" y2="620" stroke="#e8e8e8" stroke-width="0.5"/><line x1="1100" y1="0" x2="1100" y2="620" stroke="#e8e8e8" stroke-width="0.5"/><line x1="1120" y1="0" x2="1120" y2="620" stroke="#e8e8e8" stroke-width="0.5"/><line x1="1140" y1="0" x2="1140" y2="620" stroke="#e8e8e8" stroke-width="0.5"/><line x1="1160" y1="0" x2="1160" y2="620" stroke="#e8e8e8" stroke-width="0.5"/><line x1="1180" y1="0" x2="1180" y2="620" stroke="#e8e8e8" stroke-width="0.5"/><line x1="1200" y1="0" x2="1200" y2="620" stroke="#e8e8e8" stroke-width="0.5"/><line x1="1220" y1="0" x2="1220" y2="620" stroke="#e8e8e8" stroke-width="0.5"/><line x1="1240" y1="0" x2="1240" y2="620" stroke="#e8e8e8" stroke-width="0.5"/><line x1="1260" y1="0" x2="1260" y2="620" stroke="#e8e8e8" stroke-width="0.5"/><line x1="1280" y1="0" x2="1280" y2="620" stroke="#e8e8e8" stroke-width="0.5"/><line x1="1300" y1="0" x2="1300" y2="620" stroke="#e8e8e8" stroke-width="0.5"/><line x1="1320" y1="0" x2="1320" y2="620" stroke="#e8e8e8" stroke-width="0.5"/><line x1="1340" y1="0" x2="1340" y2="620" stroke="#e8e8e8" stroke-width="0.5"/><line x1="1360" y1="0" x2="1360" y2="620" stroke="#e8e8e8" stroke-width="0.5"/><line x1="1380" y1="0" x2="1380" y2="620" stroke="#e8e8e8" stroke-width="0.5"/><line x1="1400" y1="0" x2="1400" y2="620" stroke="#e8e8e8" stroke-width="0.5"/><line x1="1420" y1="0" x2="1420" y2="620" stroke="#e8e8e8" stroke-width="0.5"/><line x1="1440" y1="0" x2="1440" y2="620" stroke="#e8e8e8" stroke-width="0.5"/><line x1="1460" y1="0" x2="1460" y2="620" stroke="#e8e8e8" stroke-width="0.5"/><line x1="1480" y1="0" x2="1480" y2="620" stroke="#e8e8e8" stroke-width="0.5"/><line x1="1500" y1="0" x2="1500" y2="620" stroke="#e8e8e8" stroke-width="0.5"/><line x1="1520" y1="0" x2="1520" y2="620" stroke="#e8e8e8" stroke-width="0.5"/><line x1="1540" y1="0" x2="1540" y2="620" stroke="#e8e8e8" stroke-width="0.5"/><line x1="1560" y1="0" x2="1560" y2="620" stroke="#e8e8e8" stroke-width="0.5"/><line x1="1580" y1="0" x2="1580" y2="620" stroke="#e8e8e8" stroke-width="0.5"/><line x1="1600" y1="0" x2="1600" y2="620" stroke="#e8e8e8" stroke-width="0.5"/><line x1="1620" y1="0" x2="1620" y2="620" stroke="#e8e8e8" stroke-width="0.5"/><line x1="1640" y1="0" x2="1640" y2="620" stroke="#e8e8e8" stroke-width="0.5"/><line x1="1660" y1="0" x2="1660" y2="620" stroke="#e8e8e8" stroke-width="0.5"/><line x1="0" y1="0" x2="1680" y2="0" stroke="#e8e8e8" stroke-width="0.5"/><line x1="0" y1="20" x2="1680" y2="20" stroke="#e8e8e8" stroke-width="0.5"/><line x1="0" y1="40" x2="1680" y2="40" stroke="#e8e8e8" stroke-width="0.5"/><line x1="0" y1="60" x2="1680" y2="60" stroke="#e8e8e8" stroke-width="0.5"/><line x1="0" y1="80" x2="1680" y2="80" stroke="#e8e8e8" stroke-width="0.5"/><line x1="0" y1="100" x2="1680" y2="100" stroke="#e8e8e8" stroke-width="0.5"/><line x1="0" y1="120" x2="1680" y2="120" stroke="#e8e8e8" stroke-width="0.5"/><line x1="0" y1="140" x2="1680" y2="140" stroke="#e8e8e8" stroke-width="0.5"/><line x1="0" y1="160" x2="1680" y2="160" stroke="#e8e8e8" stroke-width="0.5"/><line x1="0" y1="180" x2="1680" y2="180" stroke="#e8e8e8" stroke-width="0.5"/><line x1="0" y1="200" x2="1680" y2="200" stroke="#e8e8e8" stroke-width="0.5"/><line x1="0" y1="220" x2="1680" y2="220" stroke="#e8e8e8" stroke-width="0.5"/><line x1="0" y1="240" x2="1680" y2="240" stroke="#e8e8e8" stroke-width="0.5"/><line x1="0" y1="260" x2="1680" y2="260" stroke="#e8e8e8" stroke-width="0.5"/><line x1="0" y1="280" x2="1680" y2="280" stroke="#e8e8e8" stroke-width="0.5"/><line x1="0" y1="300" x2="1680" y2="300" stroke="#e8e8e8" stroke-width="0.5"/><line x1="0" y1="320" x2="1680" y2="320" stroke="#e8e8e8" stroke-width="0.5"/><line x1="0" y1="340" x2="1680" y2="340" stroke="#e8e8e8" stroke-width="0.5"/><line x1="0" y1="360" x2="1680" y2="360" stroke="#e8e8e8" stroke-width="0.5"/><line x1="0" y1="380" x2="1680" y2="380" stroke="#e8e8e8" stroke-width="0.5"/><line x1="0" y1="400" x2="1680" y2="400" stroke="#e8e8e8" stroke-width="0.5"/><line x1="0" y1="420" x2="1680" y2="420" stroke="#e8e8e8" stroke-width="0.5"/><line x1="0" y1="440" x2="1680" y2="440" stroke="#e8e8e8" stroke-width="0.5"/><line x1="0" y1="460" x2="1680" y2="460" stroke="#e8e8e8" stroke-width="0.5"/><line x1="0" y1="480" x2="1680" y2="480" stroke="#e8e8e8" stroke-width="0.5"/><line x1="0" y1="500" x2="1680" y2="500" stroke="#e8e8e8" stroke-width="0.5"/><line x1="0" y1="520" x2="1680" y2="520" stroke="#e8e8e8" stroke-width="0.5"/><line x1="0" y1="540" x2="1680" y2="540" stroke="#e8e8e8" stroke-width="0.5"/><line x1="0" y1="560" x2="1680" y2="560" stroke="#e8e8e8" stroke-width="0.5"/><line x1="0" y1="580" x2="1680" y2="580" stroke="#e8e8e8" stroke-width="0.5"/><line x1="0" y1="600" x2="1680" y2="600" stroke="#e8e8e8" stroke-width="0.5"/><text x="810" y="35" text-anchor="middle" font-family="Helvetica,Arial,sans-serif" font-size="16" font-weight="bold">1. Đăng ký và đăng nhập</text><rect x="40" y="70" width="1540" height="520" fill="#f5f5f5" stroke="black" stroke-width="1.5"/><rect x="40" y="70" width="120" height="130" fill="white" stroke="black" stroke-width="1"/><text transform="translate(68,135) rotate(-90)" text-anchor="middle" font-family="Helvetica,Arial,sans-serif" font-size="11" font-weight="bold">Người dùng</text><rect x="40" y="200" width="120" height="130" fill="white" stroke="black" stroke-width="1"/><text transform="translate(68,265) rotate(-90)" text-anchor="middle" font-family="Helvetica,Arial,sans-serif" font-size="11" font-weight="bold">Ứng dụng Android</text><line x1="40" y1="200" x2="1580" y2="200" stroke="black"/><rect x="40" y="330" width="120" height="130" fill="white" stroke="black" stroke-width="1"/><text transform="translate(68,395) rotate(-90)" text-anchor="middle" font-family="Helvetica,Arial,sans-serif" font-size="11" font-weight="bold">Backend API</text><line x1="40" y1="330" x2="1580" y2="330" stroke="black"/><rect x="40" y="460" width="120" height="130" fill="white" stroke="black" stroke-width="1"/><text transform="translate(68,525) rotate(-90)" text-anchor="middle" font-family="Helvetica,Arial,sans-serif" font-size="11" font-weight="bold">Cơ sở dữ liệu</text><line x1="40" y1="460" x2="1580" y2="460" stroke="black"/><circle cx="201" cy="135" r="11" fill="black"/>
    <rect x="230" y="113" width="120" height="44" rx="8" ry="8"
          fill="white" stroke="black" stroke-width="1.2" filter="url(#shadow)"/>
    <text x="290" y="135" text-anchor="middle"
          font-family="Helvetica,Arial,sans-serif" font-size="11"><tspan x="290" dy="0">Mở ứng dụng</tspan></text>
    <polygon points="424,231 458,265 424,299 390,265" fill="white" stroke="black" stroke-width="1.2" filter="url(#shadow)"/>
    <text x="424" y="259" text-anchor="middle"
          font-family="Helvetica,Arial,sans-serif" font-size="10"><tspan x="424" dy="0">Đã đăng</tspan><tspan x="424" dy="12">nhập?</tspan></text>
    <rect x="500" y="243" width="120" height="44" rx="8" ry="8"
          fill="white" stroke="black" stroke-width="1.2" filter="url(#shadow)"/>
    <text x="560" y="258" text-anchor="middle"
          font-family="Helvetica,Arial,sans-serif" font-size="11"><tspan x="560" dy="0">Vào</tspan><tspan x="560" dy="14">MainActivity</tspan></text>
    <circle cx="667" cy="265" r="17" fill="white" stroke="black" stroke-width="2"/>
    <circle cx="667" cy="265" r="7" fill="black"/>
    <rect x="390" y="243" width="130" height="44" rx="8" ry="8"
          fill="white" stroke="black" stroke-width="1.2" filter="url(#shadow)"/>
    <text x="455" y="258" text-anchor="middle"
          font-family="Helvetica,Arial,sans-serif" font-size="11"><tspan x="455" dy="0">Hiển thị form</tspan><tspan x="455" dy="14">AuthActivity</tspan></text>
    <polygon points="564,101 598,135 564,169 530,135" fill="white" stroke="black" stroke-width="1.2" filter="url(#shadow)"/>
    <text x="564" y="129" text-anchor="middle"
          font-family="Helvetica,Arial,sans-serif" font-size="10"><tspan x="564" dy="0">ĐK hay</tspan><tspan x="564" dy="12">ĐN?</tspan></text>
    <rect x="650" y="113" width="140" height="44" rx="8" ry="8"
          fill="white" stroke="black" stroke-width="1.2" filter="url(#shadow)"/>
    <text x="720" y="128" text-anchor="middle"
          font-family="Helvetica,Arial,sans-serif" font-size="11"><tspan x="720" dy="0">Nhập thông tin</tspan><tspan x="720" dy="14">đăng ký</tspan></text>
    <rect x="650" y="113" width="130" height="44" rx="8" ry="8"
          fill="white" stroke="black" stroke-width="1.2" filter="url(#shadow)"/>
    <text x="715" y="128" text-anchor="middle"
          font-family="Helvetica,Arial,sans-serif" font-size="11"><tspan x="715" dy="0">Nhập email</tspan><tspan x="715" dy="14">và mật khẩu</tspan></text>
    <rect x="650" y="91" width="140" height="44" rx="8" ry="8"
          fill="white" stroke="black" stroke-width="1.2" filter="url(#shadow)"/>
    <text x="720" y="113" text-anchor="middle" font-size="11">Nhập thông tin đăng ký</text>
    <rect x="655" y="141" width="130" height="44" rx="8" ry="8"
          fill="white" stroke="black" stroke-width="1.2" filter="url(#shadow)"/>
    <text x="720" y="161" text-anchor="middle" font-size="11">Nhập email và mật khẩu</text>
    
    <rect x="810" y="243" width="155" height="44" rx="8" ry="8"
          fill="white" stroke="black" stroke-width="1.2" filter="url(#shadow)"/>
    <text x="887" y="258" text-anchor="middle"
          font-family="Helvetica,Arial,sans-serif" font-size="11"><tspan x="887" dy="0">Validate client</tspan><tspan x="887" dy="14">AuthViewModel</tspan></text>
    <polygon points="1024,231 1058,265 1024,299 990,265" fill="white" stroke="black" stroke-width="1.2" filter="url(#shadow)"/>
    <text x="1024" y="259" text-anchor="middle"
          font-family="Helvetica,Arial,sans-serif" font-size="10"><tspan x="1024" dy="0">Hợp lệ?</tspan></text>
    <rect x="990" y="113" width="120" height="44" rx="8" ry="8"
          fill="white" stroke="black" stroke-width="1.2" filter="url(#shadow)"/>
    <text x="1050" y="128" text-anchor="middle"
          font-family="Helvetica,Arial,sans-serif" font-size="11"><tspan x="1050" dy="0">Hiển thị</tspan><tspan x="1050" dy="14">Toast lỗi</tspan></text>
    <polygon points="1184,361 1218,395 1184,429 1150,395" fill="white" stroke="black" stroke-width="1.2" filter="url(#shadow)"/>
    <text x="1184" y="389" text-anchor="middle"
          font-family="Helvetica,Arial,sans-serif" font-size="10"><tspan x="1184" dy="0">ĐK hay</tspan><tspan x="1184" dy="12">ĐN?</tspan></text>
    <rect x="1270" y="351" width="145" height="44" rx="8" ry="8"
          fill="white" stroke="black" stroke-width="1.2" filter="url(#shadow)"/>
    <text x="1342" y="373" text-anchor="middle" font-size="11">POST /api/auth/register</text>
    <polygon points="1430,339 1498,373 1430,407 1362,373"
             fill="white" stroke="black" stroke-width="1.2"/>
    <text x="1430" y="377" text-anchor="middle" font-size="10">Email tồn tại?</text>
    <rect x="1270" y="391" width="130" height="44" rx="8" ry="8"
          fill="white" stroke="black" stroke-width="1.2" filter="url(#shadow)"/>
    <text x="1335" y="413" text-anchor="middle" font-size="11">POST /api/auth/login</text>
    <polygon points="1430,379 1498,413 1430,447 1362,413"
             fill="white" stroke="black" stroke-width="1.2"/>
    <text x="1430" y="417" text-anchor="middle" font-size="10">Đúng TK/MK?</text>
    
    <rect x="1530" y="503" width="130" height="44" rx="8" ry="8"
          fill="white" stroke="black" stroke-width="1.2" filter="url(#shadow)"/>
    <text x="1595" y="518" text-anchor="middle"
          font-family="Helvetica,Arial,sans-serif" font-size="11"><tspan x="1595" dy="0">INSERT user</tspan><tspan x="1595" dy="14">bcrypt hash</tspan></text>
    <rect x="1530" y="373" width="110" height="44" rx="8" ry="8"
          fill="white" stroke="black" stroke-width="1.2" filter="url(#shadow)"/>
    <text x="1585" y="388" text-anchor="middle"
          font-family="Helvetica,Arial,sans-serif" font-size="11"><tspan x="1585" dy="0">Ký JWT</tspan><tspan x="1585" dy="14">signToken</tspan></text>
    <rect x="1530" y="243" width="140" height="44" rx="8" ry="8"
          fill="white" stroke="black" stroke-width="1.2" filter="url(#shadow)"/>
    <text x="1600" y="258" text-anchor="middle"
          font-family="Helvetica,Arial,sans-serif" font-size="11"><tspan x="1600" dy="0">Lưu phiên</tspan><tspan x="1600" dy="14">SessionManager</tspan></text>
    <circle cx="1547" cy="135" r="17" fill="white" stroke="black" stroke-width="2"/>
    <circle cx="1547" cy="135" r="7" fill="black"/>
    <line x1="212" y1="135" x2="230" y2="135" stroke="black" stroke-width="1.2"
          marker-end="url(#arrowhead)"/>
    <line x1="350" y1="135" x2="424" y2="265" stroke="black" stroke-width="1.2"
          marker-end="url(#arrowhead)"/>
    <line x1="458" y1="265" x2="500" y2="265" stroke="black" stroke-width="1.2"
          marker-end="url(#arrowhead)"/><text x="479.0" y="259.0" text-anchor="middle" font-size="10" fill="#333">Có</text>
    <line x1="620" y1="265" x2="667" y2="265" stroke="black" stroke-width="1.2"
          marker-end="url(#arrowhead)"/>
    <line x1="424" y1="265" x2="390" y2="265" stroke="black" stroke-width="1.2"
          marker-end="url(#arrowhead)"/><text x="407.0" y="259.0" text-anchor="middle" font-size="10" fill="#333">Không</text>
    <line x1="520" y1="265" x2="564" y2="135" stroke="black" stroke-width="1.2"
          marker-end="url(#arrowhead)"/>
    <line x1="598" y1="135" x2="650" y2="113" stroke="black" stroke-width="1.2"
          marker-end="url(#arrowhead)"/><text x="624.0" y="118.0" text-anchor="middle" font-size="10" fill="#333">ĐK</text>
    <line x1="598" y1="135" x2="720" y2="141" stroke="black" stroke-width="1.2"
          marker-end="url(#arrowhead)"/><text x="659.0" y="132.0" text-anchor="middle" font-size="10" fill="#333">ĐN</text>
    <line x1="790" y1="113" x2="810" y2="265" stroke="black" stroke-width="1.2"
          marker-end="url(#arrowhead)"/>
    <line x1="720" y1="185" x2="850" y2="265" stroke="black" stroke-width="1.2"
          marker-end="url(#arrowhead)"/>
    <line x1="965" y1="265" x2="1024" y2="265" stroke="black" stroke-width="1.2"
          marker-end="url(#arrowhead)"/>
    <line x1="1058" y1="265" x2="1150" y2="395" stroke="black" stroke-width="1.2"
          marker-end="url(#arrowhead)"/><text x="1104.0" y="324.0" text-anchor="middle" font-size="10" fill="#333">Có</text>
    <line x1="1058" y1="265" x2="1050" y2="135" stroke="black" stroke-width="1.2"
          marker-end="url(#arrowhead)"/><text x="1054.0" y="194.0" text-anchor="middle" font-size="10" fill="#333">Không</text>
    <line x1="1184" y1="395" x2="1270" y2="373" stroke="black" stroke-width="1.2"
          marker-end="url(#arrowhead)"/><text x="1227.0" y="378.0" text-anchor="middle" font-size="10" fill="#333">ĐK</text>
    <line x1="1184" y1="395" x2="1270" y2="413" stroke="black" stroke-width="1.2"
          marker-end="url(#arrowhead)"/><text x="1227.0" y="398.0" text-anchor="middle" font-size="10" fill="#333">ĐN</text>
    <line x1="1415" y1="373" x2="1362" y2="373" stroke="black" stroke-width="1.2"
          marker-end="url(#arrowhead)"/>
    <line x1="1498" y1="373" x2="1050" y2="135" stroke="black" stroke-width="1.2"
          marker-end="url(#arrowhead)"/><text x="1274.0" y="248.0" text-anchor="middle" font-size="10" fill="#333">Có</text>
    <line x1="1498" y1="373" x2="1530" y2="525" stroke="black" stroke-width="1.2"
          marker-end="url(#arrowhead)"/><text x="1514.0" y="443.0" text-anchor="middle" font-size="10" fill="#333">Không</text>
    <line x1="1415" y1="413" x2="1362" y2="413" stroke="black" stroke-width="1.2"
          marker-end="url(#arrowhead)"/>
    <line x1="1498" y1="413" x2="1585" y2="395" stroke="black" stroke-width="1.2"
          marker-end="url(#arrowhead)"/><text x="1541.5" y="398.0" text-anchor="middle" font-size="10" fill="#333">Có</text>
    <line x1="1498" y1="413" x2="1050" y2="135" stroke="black" stroke-width="1.2"
          marker-end="url(#arrowhead)"/><text x="1274.0" y="268.0" text-anchor="middle" font-size="10" fill="#333">Không</text>
    <line x1="1595" y1="525" x2="1585" y2="395" stroke="black" stroke-width="1.2"
          marker-end="url(#arrowhead)"/>
    <line x1="1640" y1="395" x2="1600" y2="265" stroke="black" stroke-width="1.2"
          marker-end="url(#arrowhead)"/>
    <line x1="1670" y1="265" x2="560" y2="265" stroke="black" stroke-width="1.2"
          marker-end="url(#arrowhead)"/>
</svg>